<svg width="400" height="56" viewBox="0 0 400 56" fill="none" xmlns="http://www.w3.org/2000/svg">
<path d="M0.5 0.5H399.5V55.5H0.5V0.5Z" fill="#1E2F62" stroke="#495371"/>
<line y1="27.5" x2="400" y2="27.5" stroke="#FF0000" stroke-opacity="0.8"/>
<g filter="url(#filter0_d_13_8)">
<path d="M29.6942 36H27.0442L20.7192 27.475L18.8942 29.075V36H16.6442V18.15H18.8942V26.95C19.3942 26.3833 19.9026 25.8167 20.4192 25.25C20.9359 24.6833 21.4526 24.1167 21.9692 23.55L26.7942 18.15H29.4192L22.3442 25.925L29.6942 36ZM47.2095 27.05C47.2095 28.4333 47.0345 29.6917 46.6845 30.825C46.3345 31.9417 45.8095 32.9083 45.1095 33.725C44.4261 34.5417 43.5678 35.1667 42.5345 35.6C41.5178 36.0333 40.3345 36.25 38.9845 36.25C37.5845 36.25 36.3678 36.0333 35.3345 35.6C34.3011 35.15 33.4428 34.525 32.7595 33.725C32.0761 32.9083 31.5678 31.9333 31.2345 30.8C30.9011 29.6667 30.7345 28.4083 30.7345 27.025C30.7345 25.1917 31.0345 23.5917 31.6345 22.225C32.2345 20.8583 33.1428 19.7917 34.3595 19.025C35.5928 18.2583 37.1428 17.875 39.0095 17.875C40.7928 17.875 42.2928 18.2583 43.5095 19.025C44.7261 19.775 45.6428 20.8417 46.2595 22.225C46.8928 23.5917 47.2095 25.2 47.2095 27.05ZM33.1095 27.05C33.1095 28.55 33.3178 29.8417 33.7345 30.925C34.1511 32.0083 34.7928 32.8417 35.6595 33.425C36.5428 34.0083 37.6511 34.3 38.9845 34.3C40.3345 34.3 41.4345 34.0083 42.2845 33.425C43.1511 32.8417 43.7928 32.0083 44.2095 30.925C44.6261 29.8417 44.8345 28.55 44.8345 27.05C44.8345 24.8 44.3678 23.0417 43.4345 21.775C42.5011 20.4917 41.0261 19.85 39.0095 19.85C37.6595 19.85 36.5428 20.1417 35.6595 20.725C34.7928 21.2917 34.1511 22.1167 33.7345 23.2C33.3178 24.2667 33.1095 25.55 33.1095 27.05ZM51.1657 36V18.15H53.4157V34H61.2157V36H51.1657ZM74.4011 31.225C74.4011 32.2917 74.1427 33.2 73.6261 33.95C73.1094 34.6833 72.3677 35.25 71.4011 35.65C70.4511 36.05 69.3261 36.25 68.0261 36.25C67.3594 36.25 66.7177 36.2167 66.1011 36.15C65.5011 36.0833 64.9511 35.9917 64.4511 35.875C63.9511 35.7417 63.5094 35.5833 63.1261 35.4V33.25C63.7261 33.5167 64.4677 33.7583 65.3511 33.975C66.2511 34.1917 67.1761 34.3 68.1261 34.3C69.0094 34.3 69.7511 34.1833 70.3511 33.95C70.9511 33.7167 71.4011 33.3833 71.7011 32.95C72.0011 32.5167 72.1511 32.0083 72.1511 31.425C72.1511 30.8417 72.0261 30.35 71.7761 29.95C71.5261 29.55 71.0927 29.1833 70.4761 28.85C69.8761 28.5 69.0344 28.1333 67.9511 27.75C67.1844 27.4667 66.5094 27.1667 65.9261 26.85C65.3594 26.5167 64.8844 26.1417 64.5011 25.725C64.1177 25.3083 63.8261 24.8333 63.6261 24.3C63.4427 23.7667 63.3511 23.15 63.3511 22.45C63.3511 21.5 63.5927 20.6917 64.0761 20.025C64.5594 19.3417 65.2261 18.8167 66.0761 18.45C66.9427 18.0833 67.9344 17.9 69.0511 17.9C70.0344 17.9 70.9344 17.9917 71.7511 18.175C72.5677 18.3583 73.3094 18.6 73.9761 18.9L73.2761 20.825C72.6594 20.5583 71.9844 20.3333 71.2511 20.15C70.5344 19.9667 69.7844 19.875 69.0011 19.875C68.2511 19.875 67.6261 19.9833 67.1261 20.2C66.6261 20.4167 66.2511 20.725 66.0011 21.125C65.7511 21.5083 65.6261 21.9583 65.6261 22.475C65.6261 23.075 65.7511 23.575 66.0011 23.975C66.2511 24.375 66.6594 24.7333 67.2261 25.05C67.7927 25.3667 68.5594 25.7083 69.5261 26.075C70.5761 26.4583 71.4594 26.875 72.1761 27.325C72.9094 27.7583 73.4594 28.2833 73.8261 28.9C74.2094 29.5167 74.4011 30.2917 74.4011 31.225ZM83.6468 36H81.3968V20.125H75.8218V18.15H89.1968V20.125H83.6468V36ZM106.975 27.05C106.975 28.4333 106.8 29.6917 106.45 30.825C106.1 31.9417 105.575 32.9083 104.875 33.725C104.192 34.5417 103.333 35.1667 102.3 35.6C101.283 36.0333 100.1 36.25 98.7501 36.25C97.3501 36.25 96.1334 36.0333 95.1001 35.6C94.0668 35.15 93.2084 34.525 92.5251 33.725C91.8418 32.9083 91.3334 31.9333 91.0001 30.8C90.6668 29.6667 90.5001 28.4083 90.5001 27.025C90.5001 25.1917 90.8001 23.5917 91.4001 22.225C92.0001 20.8583 92.9084 19.7917 94.1251 19.025C95.3584 18.2583 96.9084 17.875 98.7751 17.875C100.558 17.875 102.058 18.2583 103.275 19.025C104.492 19.775 105.408 20.8417 106.025 22.225C106.658 23.5917 106.975 25.2 106.975 27.05ZM92.8751 27.05C92.8751 28.55 93.0834 29.8417 93.5001 30.925C93.9168 32.0083 94.5584 32.8417 95.4251 33.425C96.3084 34.0083 97.4168 34.3 98.7501 34.3C100.1 34.3 101.2 34.0083 102.05 33.425C102.917 32.8417 103.558 32.0083 103.975 30.925C104.392 29.8417 104.6 28.55 104.6 27.05C104.6 24.8 104.133 23.0417 103.2 21.775C102.267 20.4917 100.792 19.85 98.7751 19.85C97.4251 19.85 96.3084 20.1417 95.4251 20.725C94.5584 21.2917 93.9168 22.1167 93.5001 23.2C93.0834 24.2667 92.8751 25.55 92.8751 27.05ZM118.581 19.875C117.631 19.875 116.773 20.0417 116.006 20.375C115.24 20.6917 114.59 21.1667 114.056 21.8C113.523 22.4167 113.115 23.175 112.831 24.075C112.548 24.9583 112.406 25.9583 112.406 27.075C112.406 28.5417 112.631 29.8167 113.081 30.9C113.548 31.9833 114.231 32.8167 115.131 33.4C116.048 33.9833 117.19 34.275 118.556 34.275C119.34 34.275 120.081 34.2083 120.781 34.075C121.481 33.9417 122.165 33.775 122.831 33.575V35.525C122.165 35.775 121.473 35.9583 120.756 36.075C120.056 36.1917 119.215 36.25 118.231 36.25C116.415 36.25 114.898 35.875 113.681 35.125C112.465 34.375 111.548 33.3083 110.931 31.925C110.331 30.5417 110.031 28.9167 110.031 27.05C110.031 25.7 110.215 24.4667 110.581 23.35C110.965 22.2333 111.515 21.2667 112.231 20.45C112.965 19.6333 113.865 19.0083 114.931 18.575C115.998 18.125 117.223 17.9 118.606 17.9C119.523 17.9 120.406 17.9917 121.256 18.175C122.106 18.3583 122.865 18.6167 123.531 18.95L122.631 20.85C122.081 20.6 121.465 20.375 120.781 20.175C120.115 19.975 119.381 19.875 118.581 19.875ZM139.777 36H137.127L130.802 27.475L128.977 29.075V36H126.727V18.15H128.977V26.95C129.477 26.3833 129.986 25.8167 130.502 25.25C131.019 24.6833 131.536 24.1167 132.052 23.55L136.877 18.15H139.502L132.427 25.925L139.777 36Z" fill="white"/>
</g>
<defs>
<filter id="filter0_d_13_8" x="12.6442" y="17.875" width="131.133" height="26.375" filterUnits="userSpaceOnUse" color-interpolation-filters="sRGB">
<feFlood flood-opacity="0" result="BackgroundImageFix"/>
<feColorMatrix in="SourceAlpha" type="matrix" values="0 0 0 0 0 0 0 0 0 0 0 0 0 0 0 0 0 0 127 0" result="hardAlpha"/>
<feOffset dy="4"/>
<feGaussianBlur stdDeviation="2"/>
<feComposite in2="hardAlpha" operator="out"/>
<feColorMatrix type="matrix" values="0 0 0 0 0 0 0 0 0 0 0 0 0 0 0 0 0 0 0.25 0"/>
<feBlend mode="normal" in2="BackgroundImageFix" result="effect1_dropShadow_13_8"/>
<feBlend mode="normal" in="SourceGraphic" in2="effect1_dropShadow_13_8" result="shape"/>
</filter>
</defs>
</svg>
