<svg width="420" height="56" viewBox="0 0 420 56" fill="none" xmlns="http://www.w3.org/2000/svg">
<path d="M0.5 0.5H419.5V55.5H0.5V0.5Z" fill="#1E2F62" stroke="#495371"/>
<line y1="27.5" x2="420" y2="27.5" stroke="#FF0000"/>
<path d="M171.945 36L168.045 27.975L167.145 29.475V36H164.97V18.5H167.145V26.175L171.82 18.5H174.145L169.395 26.15L174.395 36H171.945ZM184.511 27.175C184.511 25.7917 184.461 24.65 184.361 23.75C184.261 22.85 184.094 22.1333 183.861 21.6C183.628 21.0667 183.319 20.6917 182.936 20.475C182.553 20.2583 182.078 20.15 181.511 20.15C180.944 20.15 180.469 20.2583 180.086 20.475C179.703 20.6917 179.394 21.0667 179.161 21.6C178.928 22.1333 178.761 22.85 178.661 23.75C178.561 24.65 178.511 25.7917 178.511 27.175C178.511 28.525 178.561 29.6583 178.661 30.575C178.761 31.475 178.928 32.2083 179.161 32.775C179.394 33.3417 179.703 33.75 180.086 34C180.469 34.2333 180.944 34.35 181.511 34.35C182.078 34.35 182.553 34.2333 182.936 34C183.319 33.75 183.628 33.3417 183.861 32.775C184.094 32.2083 184.261 31.475 184.361 30.575C184.461 29.6583 184.511 28.525 184.511 27.175ZM186.736 27.05C186.736 28.5833 186.653 29.925 186.486 31.075C186.336 32.2083 186.061 33.1583 185.661 33.925C185.278 34.675 184.744 35.2417 184.061 35.625C183.394 35.9917 182.544 36.175 181.511 36.175C180.478 36.175 179.619 35.9917 178.936 35.625C178.269 35.2417 177.736 34.675 177.336 33.925C176.953 33.1583 176.678 32.2083 176.511 31.075C176.361 29.925 176.286 28.5833 176.286 27.05C176.286 25.5833 176.361 24.3083 176.511 23.225C176.678 22.125 176.953 21.2167 177.336 20.5C177.736 19.7667 178.269 19.225 178.936 18.875C179.619 18.5083 180.478 18.325 181.511 18.325C182.544 18.325 183.394 18.5083 184.061 18.875C184.744 19.225 185.278 19.7667 185.661 20.5C186.061 21.2167 186.336 22.125 186.486 23.225C186.653 24.3083 186.736 25.5833 186.736 27.05ZM190.482 36V18.5H192.657V34.1H198.232V36H190.482ZM208.136 31.025C208.136 32.0583 208.02 32.9083 207.786 33.575C207.553 34.2417 207.22 34.7667 206.786 35.15C206.353 35.5333 205.828 35.8 205.211 35.95C204.611 36.1 203.936 36.175 203.186 36.175C202.786 36.175 202.311 36.1417 201.761 36.075C201.211 36.0083 200.72 35.9167 200.286 35.8V33.975C200.67 34.075 201.12 34.1667 201.636 34.25C202.153 34.3167 202.753 34.35 203.436 34.35C204.303 34.35 204.928 34.1 205.311 33.6C205.711 33.1 205.911 32.325 205.911 31.275C205.911 30.675 205.87 30.175 205.786 29.775C205.703 29.3583 205.578 29.025 205.411 28.775C205.245 28.5083 205.028 28.3083 204.761 28.175C204.511 28.0417 204.22 27.9417 203.886 27.875C203.186 27.725 202.595 27.5333 202.111 27.3C201.628 27.0667 201.236 26.7667 200.936 26.4C200.636 26.0333 200.411 25.5833 200.261 25.05C200.128 24.5167 200.061 23.8833 200.061 23.15C200.061 22.25 200.178 21.5 200.411 20.9C200.661 20.2833 201.003 19.7833 201.436 19.4C201.886 19.0167 202.411 18.7417 203.011 18.575C203.611 18.4083 204.27 18.325 204.986 18.325C205.403 18.325 205.853 18.3667 206.336 18.45C206.836 18.5167 207.27 18.6 207.636 18.7V20.525C207.203 20.425 206.72 20.3417 206.186 20.275C205.653 20.1917 205.17 20.15 204.736 20.15C204.42 20.15 204.111 20.2 203.811 20.3C203.528 20.4 203.27 20.5583 203.036 20.775C202.82 20.9917 202.636 21.275 202.486 21.625C202.353 21.9583 202.286 22.375 202.286 22.875C202.286 23.375 202.311 23.8 202.361 24.15C202.411 24.4833 202.503 24.7583 202.636 24.975C202.786 25.1917 202.986 25.3667 203.236 25.5C203.486 25.6167 203.811 25.7167 204.211 25.8C204.811 25.9167 205.353 26.0833 205.836 26.3C206.32 26.5167 206.728 26.825 207.061 27.225C207.411 27.6083 207.678 28.1083 207.861 28.725C208.045 29.3417 208.136 30.1083 208.136 31.025ZM215.851 20.4V36H213.676V20.4H209.826V18.5H219.701V20.4H215.851ZM229.433 27.175C229.433 25.7917 229.383 24.65 229.283 23.75C229.183 22.85 229.016 22.1333 228.783 21.6C228.55 21.0667 228.241 20.6917 227.858 20.475C227.475 20.2583 227 20.15 226.433 20.15C225.866 20.15 225.391 20.2583 225.008 20.475C224.625 20.6917 224.316 21.0667 224.083 21.6C223.85 22.1333 223.683 22.85 223.583 23.75C223.483 24.65 223.433 25.7917 223.433 27.175C223.433 28.525 223.483 29.6583 223.583 30.575C223.683 31.475 223.85 32.2083 224.083 32.775C224.316 33.3417 224.625 33.75 225.008 34C225.391 34.2333 225.866 34.35 226.433 34.35C227 34.35 227.475 34.2333 227.858 34C228.241 33.75 228.55 33.3417 228.783 32.775C229.016 32.2083 229.183 31.475 229.283 30.575C229.383 29.6583 229.433 28.525 229.433 27.175ZM231.658 27.05C231.658 28.5833 231.575 29.925 231.408 31.075C231.258 32.2083 230.983 33.1583 230.583 33.925C230.2 34.675 229.666 35.2417 228.983 35.625C228.316 35.9917 227.466 36.175 226.433 36.175C225.4 36.175 224.541 35.9917 223.858 35.625C223.191 35.2417 222.658 34.675 222.258 33.925C221.875 33.1583 221.6 32.2083 221.433 31.075C221.283 29.925 221.208 28.5833 221.208 27.05C221.208 25.5833 221.283 24.3083 221.433 23.225C221.6 22.125 221.875 21.2167 222.258 20.5C222.658 19.7667 223.191 19.225 223.858 18.875C224.541 18.5083 225.4 18.325 226.433 18.325C227.466 18.325 228.316 18.5083 228.983 18.875C229.666 19.225 230.2 19.7667 230.583 20.5C230.983 21.2167 231.258 22.125 231.408 23.225C231.575 24.3083 231.658 25.5833 231.658 27.05ZM242.729 35.75C242.596 35.7833 242.413 35.825 242.179 35.875C241.946 35.925 241.696 35.9667 241.429 36C241.179 36.05 240.921 36.0917 240.654 36.125C240.388 36.1583 240.154 36.175 239.954 36.175C239.054 36.175 238.288 36.05 237.654 35.8C237.021 35.5333 236.496 35.0583 236.079 34.375C235.679 33.6917 235.379 32.7583 235.179 31.575C234.996 30.375 234.904 28.8417 234.904 26.975C234.904 25.125 235.013 23.6417 235.229 22.525C235.446 21.3917 235.771 20.5167 236.204 19.9C236.654 19.2667 237.213 18.85 237.879 18.65C238.546 18.4333 239.338 18.325 240.254 18.325C240.654 18.325 241.079 18.3667 241.529 18.45C241.996 18.5167 242.396 18.5917 242.729 18.675V20.525C242.313 20.425 241.838 20.35 241.304 20.3C240.788 20.2333 240.288 20.2 239.804 20.2C239.354 20.2 238.954 20.2833 238.604 20.45C238.271 20.6 237.996 20.925 237.779 21.425C237.563 21.9083 237.396 22.6083 237.279 23.525C237.179 24.425 237.129 25.6333 237.129 27.15C237.129 28.7167 237.188 29.975 237.304 30.925C237.421 31.8583 237.588 32.575 237.804 33.075C238.038 33.575 238.321 33.9083 238.654 34.075C238.988 34.225 239.379 34.3 239.829 34.3C240.346 34.3 240.879 34.2583 241.429 34.175C241.979 34.0917 242.413 34.0083 242.729 33.925V35.75ZM252.951 36L249.051 27.975L248.151 29.475V36H245.976V18.5H248.151V26.175L252.826 18.5H255.151L250.401 26.15L255.401 36H252.951Z" fill="white"/>
</svg>
